<svg xmlns="http://www.w3.org/2000/svg" width="173" height="66.281"><g data-name="グループ 25586" fill="#2c4720"><g data-name="グループ 1490"><path data-name="パス 787" d="M66.113 13.217a5.6 5.6 0 004.493-2.151 7.5 7.5 0 001.38-3.523h-3.58a5.645 5.645 0 01-2.61 2.468l-.24-.374c.557-.26 1.9-.885 2.65-3.466a2.6 2.6 0 00.133-.614l.712.229c.028.011.173.048.173.107s-.048.076-.076.1c-.1.046-.116.085-.153.2a9.361 9.361 0 01-.365.911h2.2a14.051 14.051 0 001.6-.114l.47.5a1.023 1.023 0 00-.048.107c-.1.249-.47 1.516-.566 1.793-1.374 3.82-4.368 4.146-6.153 4.281z"/><path data-name="パス 788" d="M80.613 12.981a4.61 4.61 0 004.222-2.342 7.725 7.725 0 00.673-1.892c0-.057-.048-.057-.079-.057h-4.864c-.356 0-1.027.037-1.487.085v-.614c.45.048 1.179.087 1.487.087h4.109a10.45 10.45 0 001.284-.127l.432.443c-.1.162-.356 1.055-.422 1.256-1.153 3.266-3.908 3.495-5.279 3.611zm-.452-6.815c.509.057 1.23.087 1.487.087h2.256c.345 0 1.086-.039 1.488-.087v.614a20.676 20.676 0 00-1.488-.085h-2.256c-.354 0-1.035.037-1.487.085z"/><path data-name="パス 789" d="M94.252 13.366a4.78 4.78 0 003.292-1.374c1.278-1.284 1.363-3.119 1.422-4.366h-5.4v1.171c0 .183.028.585.076.978h-.865c.059-.422.1-.863.1-.978V7.133c.363.048.863.076.95.076h2.062v-.806a6.38 6.38 0 00-.087-.826l.751.048c.028 0 .17.009.17.1 0 .039-.153.2-.153.251v1.227h1.815a8.627 8.627 0 001.171-.116l.26.279c-.232 3.3-1.018 5.865-5.319 6.431z"/><path data-name="パス 790" d="M108.381 6.848a7.912 7.912 0 00-.057-1.055l.758.065c.116.011.164.048.164.1 0 .02 0 .039-.039.107a.488.488 0 00-.1.3v2.237a10.1 10.1 0 013.764 1.813l-.633.568a6.907 6.907 0 00-3.13-1.959v2.6c0 .4 0 1.23.031 1.94h-.817c.057-.941.057-1.747.057-1.94zm3.947 1.151a9.739 9.739 0 00-1-1.142l.308-.249a8.177 8.177 0 011.142 1.029zm.834-.575a6.322 6.322 0 00-.93-1.018l.3-.269a6.736 6.736 0 011.1.9z"/><path data-name="パス 791" d="M125.324 7.879h.347c.345 0 1.083-.048 1.487-.085v.605a23.641 23.641 0 00-1.487-.076h-.347c-.037 3.818-.526 4.655-3.589 5.3l-.2-.441a2.769 2.769 0 002.888-2.293 16.783 16.783 0 00.175-2.562h-2.621v.786c0 .574.009 1.208.017 1.776h-.854c.068-.71.107-1.4.107-1.833v-.73h-.623c-.135 0-.856.017-1.481.076v-.605c.559.057 1.249.085 1.481.085h.623v-1.18a5.039 5.039 0 00-.1-1.029l.806.039c.037 0 .192.009.192.087 0 .037-.173.192-.173.24v1.84h2.621V6.507c0-.221-.031-.586-.05-.806l.74.017c.162 0 .2.039.2.087s-.164.2-.164.249z"/><path data-name="パス 792" d="M132.576 9.469c.769.009 1.546.017 2.313.017h3.571c.133 0 1.219 0 2.313-.017v.537c-.749-.009-1.564-.02-2.313-.02h-3.571c-.028 0-1.315 0-2.313.02z"/><path data-name="パス 793" d="M147.244 7.012a10.406 10.406 0 00-.039-1.105l.769.039c.066 0 .173.009.173.087a.129.129 0 01-.028.077c-.1.114-.127.144-.127.21l-.046 2.89a12.318 12.318 0 004.626-1.544l.5.537a.225.225 0 01.066.144c0 .065-.066.057-.173.057a2.224 2.224 0 00-.518.153 26.54 26.54 0 01-4.5 1.114l-.039 2.208c-.02.9.2 1.16 1.959 1.16h.336a14.342 14.342 0 003.08-.326v.623a62.907 62.907 0 01-2.879.144h-1.1c-1.8 0-2.152-.633-2.132-1.6zm6.057.21a9.149 9.149 0 00-.979-1.132l.286-.269a7.323 7.323 0 011.134 1.007zm.815-.622a8.261 8.261 0 00-.93-1.009l.288-.258a7.339 7.339 0 011.1.882z"/><path data-name="パス 794" d="M166.987 13.182a8.871 8.871 0 00-2.689-2.726 8.063 8.063 0 01-4.414 2.756l-.153-.432a6.68 6.68 0 003.436-1.92 10.646 10.646 0 002.256-3.965l-3.407.059a11.352 11.352 0 00-1.518.114l-.017-.625a10.339 10.339 0 001.525.068l2.593-.037a10.18 10.18 0 001.411-.127l.413.4a1.258 1.258 0 00-.288.452 12.756 12.756 0 01-1.564 2.918 10.4 10.4 0 013.108 2.61z"/><path data-name="パス 795" d="M91.808 61.755a4.542 4.542 0 00-2.09-.522 2.819 2.819 0 00-1.086.164c-.251.112-.376.264-.376.461s.133.354.4.446a3.569 3.569 0 00.937.14c.638.044 1.057.079 1.263.1a2.729 2.729 0 011.282.428 1.04 1.04 0 01.415.887 1.265 1.265 0 01-.651 1.136 3.578 3.578 0 01-1.87.4 4.313 4.313 0 01-2.748-.78l.419-.555a4.39 4.39 0 002.335.664 2.886 2.886 0 001.258-.223.66.66 0 00.426-.594c0-.293-.186-.489-.559-.585a12.179 12.179 0 00-1.584-.162 4.6 4.6 0 01-1.6-.306.927.927 0 01-.535-.9 1.158 1.158 0 01.609-1.029 3.27 3.27 0 011.719-.376 4.358 4.358 0 012.5.681z"/><path data-name="パス 796" d="M103.388 65.29h-.843l-.452-.843h-2.636l-.45.843h-.843l2.136-3.923h.95zm-1.677-1.531l-.933-1.736-.937 1.736z"/><path data-name="パス 797" d="M113.881 65.29h-.843l-.452-.843h-2.636l-.45.843h-.843l2.136-3.923h.95zm-1.677-1.531l-.933-1.736-.937 1.736z"/><path data-name="パス 798" d="M123.889 61.755a4.557 4.557 0 00-2.092-.522 2.815 2.815 0 00-1.083.164c-.251.112-.378.264-.378.461s.135.354.4.446a3.605 3.605 0 00.939.14c.638.044 1.057.079 1.263.1a2.747 2.747 0 011.282.428 1.044 1.044 0 01.413.887 1.265 1.265 0 01-.651 1.136 3.569 3.569 0 01-1.868.4 4.323 4.323 0 01-2.75-.78l.422-.555a4.384 4.384 0 002.335.664 2.869 2.869 0 001.256-.223.659.659 0 00.428-.594c0-.293-.188-.489-.561-.585a12.073 12.073 0 00-1.581-.162 4.6 4.6 0 01-1.6-.306.926.926 0 01-.537-.9 1.158 1.158 0 01.609-1.029 3.28 3.28 0 011.719-.376 4.365 4.365 0 012.5.681z"/><path data-name="パス 799" d="M135.569 65.29h-.988l-1.871-1.987-1.115.8v1.186h-.766v-3.923h.766v1.92l2.671-1.92h1.138l-2.1 1.5z"/><path data-name="パス 800" d="M145.57 65.29h-4.222v-3.923h4.077v.689h-3.311v.848h2.3v.69h-2.3v1.007h3.456z"/><g data-name="グループ 1489"><path data-name="パス 801" d="M77.181 54.03c2.213-1.02 5.9-3.859 5.9-11.491v-9.241c-.12-.764-.756-1.153-1.892-1.153h-3.464c-1.195 0-1.835.428-1.9 1.269v7.828a5.376 5.376 0 001.009 3.366c-1.4-.131-5.065-.808-5.065-4.305v-7.04l-.007-.022c-.142-.727-.773-1.1-1.878-1.1h-4.652l-.773-1.808h5.574c1.136-.042 1.717-.507 1.734-1.378a41.676 41.676 0 00-.19-4.766h.068a4.541 4.541 0 012.477.7 4.375 4.375 0 011.7 3.91v.255c.07.815.649 1.238 1.721 1.28h3.809c1.094-.042 1.675-.474 1.73-1.289v-2.973c0-5.469 4.884-6.472 7.09-6.647-1.079.749-2.593 2.674-2.593 7.593v2.113c.09.758.668 1.162 1.715 1.2h5.262l-.771 1.808h-4.281c-1.166 0-1.8.4-1.9 1.2h-.011l-.015.218v7.468c0 6.039-3.563 12.151-10.4 13"/><path data-name="パス 802" d="M152.844 54.045c2.047-1 5.5-3.836 5.5-11.507v-8.976c0-.937-.644-1.415-1.913-1.415h-5.323c-1.1 0-1.73.363-1.876 1.079l-.007.022v3.614c0 7.219-3.67 8.53-4.825 8.765.5-1.564.522-3.056.522-6.684v-12.97c0-4.1 4.39-5.281 6.094-5.585-.684.786-1.791 2.6-1.791 6.14v2.7l.007.022c.146.716.778 1.081 1.876 1.081h17.575l-.773 1.808h-3.106c-1.125 0-1.758.382-1.887 1.136V41.022a14.608 14.608 0 01-2.9 9.093 10.442 10.442 0 01-7.171 3.925"/><path data-name="パス 803" d="M104.55 53.401c2.767-1.022 7.855-3.853 10.725-11.911 0 0 1.828-5.12 3.032-8.787s1.173-4.246.7-4.7a1.843 1.843 0 00-1.214-.347h-11.181l-.769-1.787h18.872l.033-.011a12.088 12.088 0 012.905-.535c-1.142.706-2.99 2.527-4.661 7.217-1.37 3.855-3.519 9.491-3.877 10.211l-.094.188.181.1c6.4 3.569 8.744 8.1 9.222 9.161l-4.432 1.077a14.584 14.584 0 00-5.205-9.353l-.2-.179-.135.232a18.7 18.7 0 01-13.9 9.427"/><path data-name="パス 804" d="M28.179 31.364c-3.641-7.278-3.663-15.539-.052-21.05 2.086-3.493 5.941-5.718 10.845-6.249a14.868 14.868 0 017.379 1.171A32.27 32.27 0 0028.707 0 32.33 32.33 0 00.001 17.325c3.065.828 17.264 5.209 22.85 16.784 3.753 7.785 3.779 16.142.063 21.819a13.33 13.33 0 01-10.421 6.695 13.25 13.25 0 01-1.778.118 16.4 16.4 0 01-6.555-1.437 32.471 32.471 0 0017.317 4.978 32.556 32.556 0 0029.348-18.6c-10.93-2.9-18.752-8.54-22.644-16.319"/><path data-name="パス 805" d="M170.82 50.33a2.143 2.143 0 012.18 2.145 2.154 2.154 0 01-2.18 2.158 2.163 2.163 0 01-2.191-2.158 2.159 2.159 0 012.191-2.145m0 3.831a1.611 1.611 0 001.619-1.686 1.634 1.634 0 00-1.619-1.688 1.644 1.644 0 00-1.629 1.688 1.642 1.642 0 001.629 1.686m-.837-.607v-2.088a5.488 5.488 0 01.826-.07c.424 0 .963.07.963.62a.53.53 0 01-.446.47v.035a.615.615 0 01.389.529 1.928 1.928 0 00.149.5h-.561a1.962 1.962 0 01-.162-.494c-.068-.321-.24-.321-.642-.321v.815zm.526-1.182c.323 0 .69 0 .69-.288 0-.194-.138-.31-.424-.31a1.359 1.359 0 00-.266.024z"/></g></g><g data-name="グループ 1492"><path data-name="パス 806" d="M66.113 13.217a5.6 5.6 0 004.493-2.151 7.5 7.5 0 001.38-3.523h-3.58a5.645 5.645 0 01-2.61 2.468l-.24-.374c.557-.26 1.9-.885 2.65-3.466a2.6 2.6 0 00.133-.614l.712.229c.028.011.173.048.173.107s-.048.076-.076.1c-.1.046-.116.085-.153.2a9.361 9.361 0 01-.365.911h2.2a14.051 14.051 0 001.6-.114l.47.5a1.023 1.023 0 00-.048.107c-.1.249-.47 1.516-.566 1.793-1.374 3.82-4.368 4.146-6.153 4.281z"/><path data-name="パス 807" d="M80.613 12.981a4.61 4.61 0 004.222-2.342 7.725 7.725 0 00.673-1.892c0-.057-.048-.057-.079-.057h-4.864c-.356 0-1.027.037-1.487.085v-.614c.45.048 1.179.087 1.487.087h4.109a10.45 10.45 0 001.284-.127l.432.443c-.1.162-.356 1.055-.422 1.256-1.153 3.266-3.908 3.495-5.279 3.611zm-.452-6.815c.509.057 1.23.087 1.487.087h2.256c.345 0 1.086-.039 1.488-.087v.614a20.676 20.676 0 00-1.488-.085h-2.256c-.354 0-1.035.037-1.487.085z"/><path data-name="パス 808" d="M94.252 13.366a4.78 4.78 0 003.292-1.374c1.278-1.284 1.363-3.119 1.422-4.366h-5.4v1.171c0 .183.028.585.076.978h-.865c.059-.422.1-.863.1-.978V7.133c.363.048.863.076.95.076h2.062v-.806a6.38 6.38 0 00-.087-.826l.751.048c.028 0 .17.009.17.1 0 .039-.153.2-.153.251v1.227h1.815a8.627 8.627 0 001.171-.116l.26.279c-.232 3.3-1.018 5.865-5.319 6.431z"/><path data-name="パス 809" d="M108.381 6.848a7.912 7.912 0 00-.057-1.055l.758.065c.116.011.164.048.164.1 0 .02 0 .039-.039.107a.488.488 0 00-.1.3v2.237a10.1 10.1 0 013.764 1.813l-.633.568a6.907 6.907 0 00-3.13-1.959v2.6c0 .4 0 1.23.031 1.94h-.817c.057-.941.057-1.747.057-1.94zm3.947 1.151a9.739 9.739 0 00-1-1.142l.308-.249a8.177 8.177 0 011.142 1.029zm.834-.575a6.322 6.322 0 00-.93-1.018l.3-.269a6.736 6.736 0 011.1.9z"/><path data-name="パス 810" d="M125.324 7.879h.347c.345 0 1.083-.048 1.487-.085v.605a23.641 23.641 0 00-1.487-.076h-.347c-.037 3.818-.526 4.655-3.589 5.3l-.2-.441a2.769 2.769 0 002.888-2.293 16.783 16.783 0 00.175-2.562h-2.621v.786c0 .574.009 1.208.017 1.776h-.854c.068-.71.107-1.4.107-1.833v-.73h-.623c-.135 0-.856.017-1.481.076v-.605c.559.057 1.249.085 1.481.085h.623v-1.18a5.039 5.039 0 00-.1-1.029l.806.039c.037 0 .192.009.192.087 0 .037-.173.192-.173.24v1.84h2.621V6.507c0-.221-.031-.586-.05-.806l.74.017c.162 0 .2.039.2.087s-.164.2-.164.249z"/><path data-name="パス 811" d="M132.576 9.469c.769.009 1.546.017 2.313.017h3.571c.133 0 1.219 0 2.313-.017v.537c-.749-.009-1.564-.02-2.313-.02h-3.571c-.028 0-1.315 0-2.313.02z"/><path data-name="パス 812" d="M147.244 7.012a10.406 10.406 0 00-.039-1.105l.769.039c.066 0 .173.009.173.087a.129.129 0 01-.028.077c-.1.114-.127.144-.127.21l-.046 2.89a12.318 12.318 0 004.626-1.544l.5.537a.225.225 0 01.066.144c0 .065-.066.057-.173.057a2.224 2.224 0 00-.518.153 26.54 26.54 0 01-4.5 1.114l-.039 2.208c-.02.9.2 1.16 1.959 1.16h.336a14.342 14.342 0 003.08-.326v.623a62.907 62.907 0 01-2.879.144h-1.1c-1.8 0-2.152-.633-2.132-1.6zm6.057.21a9.149 9.149 0 00-.979-1.132l.286-.269a7.323 7.323 0 011.134 1.007zm.815-.622a8.261 8.261 0 00-.93-1.009l.288-.258a7.339 7.339 0 011.1.882z"/><path data-name="パス 813" d="M166.987 13.182a8.871 8.871 0 00-2.689-2.726 8.063 8.063 0 01-4.414 2.756l-.153-.432a6.68 6.68 0 003.436-1.92 10.646 10.646 0 002.256-3.965l-3.407.059a11.352 11.352 0 00-1.518.114l-.017-.625a10.339 10.339 0 001.525.068l2.593-.037a10.18 10.18 0 001.411-.127l.413.4a1.258 1.258 0 00-.288.452 12.756 12.756 0 01-1.564 2.918 10.4 10.4 0 013.108 2.61z"/><path data-name="パス 814" d="M91.808 61.755a4.542 4.542 0 00-2.09-.522 2.819 2.819 0 00-1.086.164c-.251.112-.376.264-.376.461s.133.354.4.446a3.569 3.569 0 00.937.14c.638.044 1.057.079 1.263.1a2.729 2.729 0 011.282.428 1.04 1.04 0 01.415.887 1.265 1.265 0 01-.651 1.136 3.578 3.578 0 01-1.87.4 4.313 4.313 0 01-2.748-.78l.419-.555a4.39 4.39 0 002.335.664 2.886 2.886 0 001.258-.223.66.66 0 00.426-.594c0-.293-.186-.489-.559-.585a12.179 12.179 0 00-1.584-.162 4.6 4.6 0 01-1.6-.306.927.927 0 01-.535-.9 1.158 1.158 0 01.609-1.029 3.27 3.27 0 011.719-.376 4.358 4.358 0 012.5.681z"/><path data-name="パス 815" d="M103.388 65.29h-.843l-.452-.843h-2.636l-.45.843h-.843l2.136-3.923h.95zm-1.677-1.531l-.933-1.736-.937 1.736z"/><path data-name="パス 816" d="M113.881 65.29h-.843l-.452-.843h-2.636l-.45.843h-.843l2.136-3.923h.95zm-1.677-1.531l-.933-1.736-.937 1.736z"/><path data-name="パス 817" d="M123.889 61.755a4.557 4.557 0 00-2.092-.522 2.815 2.815 0 00-1.083.164c-.251.112-.378.264-.378.461s.135.354.4.446a3.605 3.605 0 00.939.14c.638.044 1.057.079 1.263.1a2.747 2.747 0 011.282.428 1.044 1.044 0 01.413.887 1.265 1.265 0 01-.651 1.136 3.569 3.569 0 01-1.868.4 4.323 4.323 0 01-2.75-.78l.422-.555a4.384 4.384 0 002.335.664 2.869 2.869 0 001.256-.223.659.659 0 00.428-.594c0-.293-.188-.489-.561-.585a12.073 12.073 0 00-1.581-.162 4.6 4.6 0 01-1.6-.306.926.926 0 01-.537-.9 1.158 1.158 0 01.609-1.029 3.28 3.28 0 011.719-.376 4.365 4.365 0 012.5.681z"/><path data-name="パス 818" d="M135.569 65.29h-.988l-1.871-1.987-1.115.8v1.186h-.766v-3.923h.766v1.92l2.671-1.92h1.138l-2.1 1.5z"/><path data-name="パス 819" d="M145.57 65.29h-4.222v-3.923h4.077v.689h-3.311v.848h2.3v.69h-2.3v1.007h3.456z"/><g data-name="グループ 1491"><path data-name="パス 820" d="M77.181 54.03c2.213-1.02 5.9-3.859 5.9-11.491v-9.241c-.12-.764-.756-1.153-1.892-1.153h-3.464c-1.195 0-1.835.428-1.9 1.269v7.828a5.376 5.376 0 001.009 3.366c-1.4-.131-5.065-.808-5.065-4.305v-7.04l-.007-.022c-.142-.727-.773-1.1-1.878-1.1h-4.652l-.773-1.808h5.574c1.136-.042 1.717-.507 1.734-1.378a41.676 41.676 0 00-.19-4.766h.068a4.541 4.541 0 012.477.7 4.375 4.375 0 011.7 3.91v.255c.07.815.649 1.238 1.721 1.28h3.809c1.094-.042 1.675-.474 1.73-1.289v-2.973c0-5.469 4.884-6.472 7.09-6.647-1.079.749-2.593 2.674-2.593 7.593v2.113c.09.758.668 1.162 1.715 1.2h5.262l-.771 1.808h-4.281c-1.166 0-1.8.4-1.9 1.2h-.011l-.015.218v7.468c0 6.039-3.563 12.151-10.4 13"/><path data-name="パス 821" d="M152.844 54.045c2.047-1 5.5-3.836 5.5-11.507v-8.976c0-.937-.644-1.415-1.913-1.415h-5.323c-1.1 0-1.73.363-1.876 1.079l-.007.022v3.614c0 7.219-3.67 8.53-4.825 8.765.5-1.564.522-3.056.522-6.684v-12.97c0-4.1 4.39-5.281 6.094-5.585-.684.786-1.791 2.6-1.791 6.14v2.7l.007.022c.146.716.778 1.081 1.876 1.081h17.575l-.773 1.808h-3.106c-1.125 0-1.758.382-1.887 1.136V41.022a14.608 14.608 0 01-2.9 9.093 10.442 10.442 0 01-7.171 3.925"/><path data-name="パス 822" d="M104.55 53.401c2.767-1.022 7.855-3.853 10.725-11.911 0 0 1.828-5.12 3.032-8.787s1.173-4.246.7-4.7a1.843 1.843 0 00-1.214-.347h-11.181l-.769-1.787h18.872l.033-.011a12.088 12.088 0 012.905-.535c-1.142.706-2.99 2.527-4.661 7.217-1.37 3.855-3.519 9.491-3.877 10.211l-.094.188.181.1c6.4 3.569 8.744 8.1 9.222 9.161l-4.432 1.077a14.584 14.584 0 00-5.205-9.353l-.2-.179-.135.232a18.7 18.7 0 01-13.9 9.427"/><path data-name="パス 823" d="M28.179 31.364c-3.641-7.278-3.663-15.539-.052-21.05 2.086-3.493 5.941-5.718 10.845-6.249a14.868 14.868 0 017.379 1.171A32.27 32.27 0 0028.707 0 32.33 32.33 0 00.001 17.325c3.065.828 17.264 5.209 22.85 16.784 3.753 7.785 3.779 16.142.063 21.819a13.33 13.33 0 01-10.421 6.695 13.25 13.25 0 01-1.778.118 16.4 16.4 0 01-6.555-1.437 32.471 32.471 0 0017.317 4.978 32.556 32.556 0 0029.348-18.6c-10.93-2.9-18.752-8.54-22.644-16.319"/><path data-name="パス 824" d="M170.82 50.33a2.143 2.143 0 012.18 2.145 2.154 2.154 0 01-2.18 2.158 2.163 2.163 0 01-2.191-2.158 2.159 2.159 0 012.191-2.145m0 3.831a1.611 1.611 0 001.619-1.686 1.634 1.634 0 00-1.619-1.688 1.644 1.644 0 00-1.629 1.688 1.642 1.642 0 001.629 1.686m-.837-.607v-2.088a5.488 5.488 0 01.826-.07c.424 0 .963.07.963.62a.53.53 0 01-.446.47v.035a.615.615 0 01.389.529 1.928 1.928 0 00.149.5h-.561a1.962 1.962 0 01-.162-.494c-.068-.321-.24-.321-.642-.321v.815zm.526-1.182c.323 0 .69 0 .69-.288 0-.194-.138-.31-.424-.31a1.359 1.359 0 00-.266.024z"/></g></g></g></svg>